<svg width="110" height="110" viewBox="0 0 110 110" fill="none" xmlns="http://www.w3.org/2000/svg">
<path d="M11.7857 23.5776H3.92857C2.88665 23.5776 1.8874 23.1637 1.15065 22.427C0.413902 21.6903 0 20.6912 0 19.6493C0 18.6075 0.413902 17.6083 1.15065 16.8716C1.8874 16.1349 2.88665 15.721 3.92857 15.721H35.3571V3.92829C35.3571 2.88644 35.771 1.88727 36.5078 1.15057C37.2445 0.413873 38.2438 0 39.2857 0H70.7143C71.7562 0 72.7555 0.413873 73.4922 1.15057C74.229 1.88727 74.6429 2.88644 74.6429 3.92829V15.721H106.071C107.113 15.721 108.113 16.1349 108.849 16.8716C109.586 17.6083 110 18.6075 110 19.6493C110 20.6912 109.586 21.6903 108.849 22.427C108.113 23.1637 107.113 23.5776 106.071 23.5776H98.2143V106.072C98.2143 107.114 97.8004 108.113 97.0636 108.849C96.3269 109.586 95.3276 110 94.2857 110H15.7143C14.6724 110 13.6731 109.586 12.9364 108.849C12.1996 108.113 11.7857 107.114 11.7857 106.072V23.5776ZM66.7857 15.721V7.86444H43.2143V15.721H66.7857ZM19.6429 102.143H90.3571V23.5776H19.6429V102.143ZM43.2143 86.4303C42.1724 86.4303 41.1731 86.0164 40.4364 85.2797C39.6996 84.543 39.2857 83.5438 39.2857 82.502V43.2191C39.2857 42.1772 39.6996 41.178 40.4364 40.4413C41.1731 39.7046 42.1724 39.2908 43.2143 39.2908C44.2562 39.2908 45.2555 39.7046 45.9922 40.4413C46.729 41.178 47.1429 42.1772 47.1429 43.2191V82.502C47.1429 83.5438 46.729 84.543 45.9922 85.2797C45.2555 86.0164 44.2562 86.4303 43.2143 86.4303ZM66.7857 86.4303C65.7438 86.4303 64.7445 86.0164 64.0078 85.2797C63.271 84.543 62.8571 83.5438 62.8571 82.502V43.2191C62.8571 42.1772 63.271 41.178 64.0078 40.4413C64.7445 39.7046 65.7438 39.2908 66.7857 39.2908C67.8276 39.2908 68.8269 39.7046 69.5636 40.4413C70.3004 41.178 70.7143 42.1772 70.7143 43.2191V82.502C70.7143 83.5438 70.3004 84.543 69.5636 85.2797C68.8269 86.0164 67.8276 86.4303 66.7857 86.4303Z" fill="#D92D20"/>
</svg>
