<svg width="110" height="110" viewBox="0 0 110 110" fill="none" xmlns="http://www.w3.org/2000/svg">
<path d="M55 0C24.585 0 0 24.585 0 55C0 85.415 24.585 110 55 110C85.415 110 110 85.415 110 55C110 24.585 85.415 0 55 0ZM78.65 78.65C78.1412 79.1599 77.5368 79.5644 76.8714 79.8404C76.2061 80.1164 75.4928 80.2584 74.7725 80.2584C74.0522 80.2584 73.3389 80.1164 72.6736 79.8404C72.0082 79.5644 71.4038 79.1599 70.895 78.65L55 62.755L39.105 78.65C38.0766 79.6784 36.6818 80.2561 35.2275 80.2561C33.7732 80.2561 32.3784 79.6784 31.35 78.65C30.3216 77.6216 29.7439 76.2268 29.7439 74.7725C29.7439 74.0524 29.8857 73.3393 30.1613 72.674C30.4369 72.0087 30.8408 71.4042 31.35 70.895L47.245 55L31.35 39.105C30.3216 38.0766 29.7439 36.6818 29.7439 35.2275C29.7439 33.7732 30.3216 32.3784 31.35 31.35C32.3784 30.3216 33.7732 29.7439 35.2275 29.7439C36.6818 29.7439 38.0766 30.3216 39.105 31.35L55 47.245L70.895 31.35C71.4042 30.8408 72.0087 30.4369 72.674 30.1613C73.3393 29.8857 74.0524 29.7439 74.7725 29.7439C75.4926 29.7439 76.2057 29.8857 76.871 30.1613C77.5363 30.4369 78.1408 30.8408 78.65 31.35C79.1592 31.8592 79.5631 32.4637 79.8387 33.129C80.1143 33.7943 80.2561 34.5074 80.2561 35.2275C80.2561 35.9476 80.1143 36.6607 79.8387 37.326C79.5631 37.9913 79.1592 38.5958 78.65 39.105L62.755 55L78.65 70.895C80.74 72.985 80.74 76.505 78.65 78.65Z" fill="#F04438"/>
</svg>
