<svg fill="none" height="92" viewBox="0 0 92 92" width="92" xmlns="http://www.w3.org/2000/svg"><path d="m50.5834 32.2498h-9.1667v-9.1666h9.1667m0 45.8333h-9.1667v-27.5h9.1667m-4.5833-41.249996c-6.0189 0-11.9789 1.185516-17.5397 3.488856-5.5607 2.30334-10.6134 5.6794-14.8694 9.93544-8.5954 8.5954-13.424252 20.2533-13.424252 32.409 0 12.1558 4.828852 23.8137 13.424252 32.4091 4.256 4.256 9.3087 7.6321 14.8694 9.9354 5.5608 2.3034 11.5208 3.4889 17.5397 3.4889 12.1557 0 23.8136-4.8289 32.409-13.4243 8.5955-8.5954 13.4243-20.2533 13.4243-32.4091 0-6.0189-1.1855-11.9789-3.4888-17.5396-2.3034-5.5608-5.6794-10.6134-9.9355-14.8694-4.256-4.25604-9.3086-7.6321-14.8694-9.93544-5.5607-2.30334-11.5207-3.488856-17.5396-3.488856z" fill="#2e90fa"/></svg>