<svg width="110" height="110" viewBox="0 0 110 110" fill="none" xmlns="http://www.w3.org/2000/svg">
<path d="M76.9998 44C76.9998 49.8348 74.6819 55.4306 70.5561 59.5564C66.4303 63.6822 60.8345 66 54.9998 66C49.165 66 43.5692 63.6822 39.4434 59.5564C35.3176 55.4306 32.9998 49.8348 32.9998 44C32.9998 38.1652 35.3176 32.5694 39.4434 28.4436C43.5692 24.3178 49.165 22 54.9998 22C60.8345 22 66.4303 24.3178 70.5561 28.4436C74.6819 32.5694 76.9998 38.1652 76.9998 44Z" fill="black"/>
<path fill-rule="evenodd" clip-rule="evenodd" d="M52.7554 109.955C23.4215 108.778 0 84.6221 0 54.9994C0 24.6232 24.6232 0 54.9994 0C85.3756 0 109.999 24.6232 109.999 54.9994C109.999 85.3756 85.3756 109.999 54.9994 109.999C54.7482 110 54.4971 110 54.2459 109.999C53.7482 109.999 53.2504 109.982 52.7554 109.955ZM19.7063 89.704C19.2951 88.5231 19.1551 87.2647 19.2968 86.0223C19.4384 84.7799 19.8581 83.5853 20.5246 82.5273C21.1911 81.4693 22.0874 80.575 23.1468 79.9107C24.2063 79.2465 25.4017 78.8294 26.6445 78.6904C48.0832 76.3172 62.0476 76.5316 83.3818 78.7399C84.6262 78.8695 85.8246 79.2813 86.8858 79.944C87.9469 80.6068 88.8428 81.5029 89.5053 82.5643C90.1678 83.6256 90.5793 84.8241 90.7086 86.0685C90.8378 87.3129 90.6814 88.5704 90.2512 89.7452C99.3947 80.4941 104.515 68.0066 104.499 54.9994C104.499 27.6619 82.3368 5.49994 54.9994 5.49994C27.6619 5.49994 5.49994 27.6619 5.49994 54.9994C5.49994 68.5182 10.9201 80.7721 19.7063 89.704Z" fill="black"/>
</svg>
