<svg width="111" height="111" viewBox="0 0 111 111" fill="none" xmlns="http://www.w3.org/2000/svg">
<path d="M55.875 0.875C70.4619 0.875 84.4514 6.66963 94.7659 16.9841C105.08 27.2986 110.875 41.2881 110.875 55.875C110.875 70.4619 105.08 84.4514 94.7659 94.7659C84.4514 105.08 70.4619 110.875 55.875 110.875C41.2881 110.875 27.2986 105.08 16.9841 94.7659C6.66963 84.4514 0.875 70.4619 0.875 55.875C0.875 41.2881 6.66963 27.2986 16.9841 16.9841C27.2986 6.66963 41.2881 0.875 55.875 0.875ZM49.0236 66.7257L36.8057 54.5C36.3677 54.062 35.8477 53.7145 35.2754 53.4775C34.7032 53.2405 34.0898 53.1184 33.4704 53.1184C32.8509 53.1184 32.2376 53.2405 31.6653 53.4775C31.093 53.7145 30.573 54.062 30.135 54.5C29.2504 55.3846 28.7534 56.5844 28.7534 57.8354C28.7534 59.0864 29.2504 60.2861 30.135 61.1707L45.6921 76.7279C46.1289 77.1681 46.6485 77.5175 47.221 77.7559C47.7934 77.9943 48.4074 78.1171 49.0275 78.1171C49.6476 78.1171 50.2616 77.9943 50.834 77.7559C51.4065 77.5175 51.9261 77.1681 52.3629 76.7279L84.5771 44.5057C85.021 44.0695 85.3741 43.5498 85.6161 42.9764C85.8581 42.4031 85.9842 41.7875 85.987 41.1652C85.9899 40.5429 85.8696 39.9262 85.633 39.3506C85.3963 38.7751 85.0481 38.2521 84.6083 37.8118C84.1685 37.3715 83.6459 37.0226 83.0706 36.7853C82.4953 36.548 81.8787 36.4269 81.2564 36.429C80.6341 36.4312 80.0184 36.5566 79.4448 36.7979C78.8712 37.0392 78.351 37.3917 77.9143 37.835L49.0236 66.7257Z" fill="#5EDD60"/>
</svg>
